<?xml version="1.0" encoding="UTF-8"?>
<svg width="97px" height="89px" viewBox="0 0 97 89" version="1.1" xmlns="http://www.w3.org/2000/svg" xmlns:xlink="http://www.w3.org/1999/xlink">
    <title>icons/agile</title>
    <defs>
        <filter id="filter-1">
            <feColorMatrix in="SourceGraphic" type="matrix" values="0 0 0 0 0.039216 0 0 0 0 0.431373 0 0 0 0 0.819608 0 0 0 1.000000 0"></feColorMatrix>
        </filter>
    </defs>
    <g id="icons/agile" stroke="none" stroke-width="1" fill="none" fill-rule="evenodd" opacity="0.854445685">
        <g filter="url(#filter-1)" id="ElegantIcons-icon-adjust-horiz">
            <g>
                <path d="M92.9583333,8.09090909 L80.8333333,8.09090909 C80.8333333,3.62472727 77.212,0 72.75,0 L64.6666667,0 C60.2046667,0 56.5833333,3.62472727 56.5833333,8.09090909 L4.04166667,8.09090909 C1.81066667,8.09090909 0,9.90327273 0,12.1363636 C0,14.3694545 1.81066667,16.1818182 4.04166667,16.1818182 L56.5833333,16.1818182 C56.5833333,20.648 60.2046667,24.2727273 64.6666667,24.2727273 L72.75,24.2727273 C77.212,24.2727273 80.8333333,20.648 80.8333333,16.1818182 L92.9583333,16.1818182 C95.1893333,16.1818182 97,14.3694545 97,12.1363636 C97,9.90327273 95.1893333,8.09090909 92.9583333,8.09090909 Z M72.75,16.1818182 L64.6666667,16.1818182 L64.6666667,8.09090909 L72.75,8.09090909 L72.75,16.1818182 Z M92.9583333,40.4545455 L40.4166667,40.4545455 C40.4166667,35.9883636 36.7953333,32.3636364 32.3333333,32.3636364 L24.25,32.3636364 C19.788,32.3636364 16.1666667,35.9883636 16.1666667,40.4545455 L4.04166667,40.4545455 C1.81066667,40.4545455 0,42.2669091 0,44.5 C0,46.7330909 1.81066667,48.5454545 4.04166667,48.5454545 L16.1666667,48.5454545 C16.1666667,53.0116364 19.788,56.6363636 24.25,56.6363636 L32.3333333,56.6363636 C36.7953333,56.6363636 40.4166667,53.0116364 40.4166667,48.5454545 L92.9583333,48.5454545 C95.1893333,48.5454545 97,46.7330909 97,44.5 C97,42.2669091 95.1893333,40.4545455 92.9583333,40.4545455 Z M32.3333333,48.5454545 L24.25,48.5454545 L24.25,40.4545455 L32.3333333,40.4545455 L32.3333333,48.5454545 Z M92.9583333,72.8181818 L64.6666667,72.8181818 C64.6666667,68.352 61.0453333,64.7272727 56.5833333,64.7272727 L48.5,64.7272727 C44.038,64.7272727 40.4166667,68.352 40.4166667,72.8181818 L4.04166667,72.8181818 C1.81066667,72.8181818 0,74.6305455 0,76.8636364 C0,79.0967273 1.81066667,80.9090909 4.04166667,80.9090909 L40.4166667,80.9090909 C40.4166667,85.3752727 44.038,89 48.5,89 L56.5833333,89 C61.0453333,89 64.6666667,85.3752727 64.6666667,80.9090909 L92.9583333,80.9090909 C95.1893333,80.9090909 97,79.0967273 97,76.8636364 C97,74.6305455 95.1893333,72.8181818 92.9583333,72.8181818 Z M56.5833333,80.9090909 L48.5,80.9090909 L48.5,72.8181818 L56.5833333,72.8181818 L56.5833333,80.9090909 Z" id="Shape" fill="#000000" fill-rule="nonzero"></path>
            </g>
        </g>
    </g>
</svg>