<?xml version="1.0" encoding="UTF-8"?>
<svg width="37px" height="22px" viewBox="0 0 37 22" version="1.1" xmlns="http://www.w3.org/2000/svg" xmlns:xlink="http://www.w3.org/1999/xlink">
    <title>icons/arrowright</title>
    <defs>
        <filter id="filter-1">
            <feColorMatrix in="SourceGraphic" type="matrix" values="0 0 0 0 1.000000 0 0 0 0 1.000000 0 0 0 0 1.000000 0 0 0 1.000000 0"></feColorMatrix>
        </filter>
    </defs>
    <g id="icons/arrowright" stroke="none" stroke-width="1" fill="none" fill-rule="evenodd">
        <g filter="url(#filter-1)" id="ElegantIcons-arrow-right">
            <g>
                <path d="M0.631578947,11.3636364 C0.631578947,12.1918138 1.30357895,12.8639579 2.13157895,12.8639579 L31.5105789,12.8639579 L25.0725789,19.3033377 C24.4875789,19.8884631 24.4875789,20.8396669 25.0725789,21.4247923 C25.6575789,22.0099177 26.6085789,22.0099177 27.1935789,21.4247923 L36.1935789,12.4228633 C36.3315789,12.2848338 36.4425789,12.1197984 36.5175789,11.9367592 C36.5895789,11.75372 36.6315789,11.5616788 36.6315789,11.3696376 C36.6315789,11.366637 36.6315789,11.366637 36.6315789,11.3636364 L36.6315789,11.3636364 C36.6315789,11.1685946 36.5925789,10.9735528 36.5145789,10.7905136 C36.4395789,10.6074743 36.3285789,10.442439 36.1905789,10.3044094 L27.1905789,1.3024804 C26.6055789,0.717355018 25.6545789,0.717355018 25.0695789,1.3024804 C24.4845789,1.88760579 24.4845789,2.83880962 25.0695789,3.423935 L31.5105789,9.86331487 L2.13157895,9.86331487 C1.30357895,9.86331487 0.631578947,10.5354589 0.631578947,11.3636364 Z" id="Path" fill="#000000" fill-rule="nonzero"></path>
            </g>
        </g>
    </g>
</svg>