<?xml version="1.0" encoding="UTF-8"?>
<svg width="89px" height="89px" viewBox="0 0 89 89" version="1.1" xmlns="http://www.w3.org/2000/svg" xmlns:xlink="http://www.w3.org/1999/xlink">
    <title>icons/customersuccess</title>
    <defs>
        <filter id="filter-1">
            <feColorMatrix in="SourceGraphic" type="matrix" values="0 0 0 0 0.039216 0 0 0 0 0.431373 0 0 0 0 0.819608 0 0 0 1.000000 0"></feColorMatrix>
        </filter>
    </defs>
    <g id="icons/customersuccess" stroke="none" stroke-width="1" fill="none" fill-rule="evenodd">
        <g filter="url(#filter-1)" id="FontAwesome-thumbs-up-solid">
            <g>
                <path d="M18.078125,38.9375 L4.171875,38.9375 C1.8677832,38.9375 -3.55271368e-14,40.8052832 -3.55271368e-14,43.109375 L-3.55271368e-14,84.828125 C-3.55271368e-14,87.1322168 1.8677832,89 4.171875,89 L18.078125,89 C20.3822168,89 22.25,87.1322168 22.25,84.828125 L22.25,43.109375 C22.25,40.8052832 20.3822168,38.9375 18.078125,38.9375 Z M11.125,82.046875 C8.8209082,82.046875 6.953125,80.1790918 6.953125,77.875 C6.953125,75.5709082 8.8209082,73.703125 11.125,73.703125 C13.4290918,73.703125 15.296875,75.5709082 15.296875,77.875 C15.296875,80.1790918 13.4290918,82.046875 11.125,82.046875 Z M66.75,14.1586484 C66.75,21.5317422 62.2356836,25.6674609 60.9655215,30.59375 L78.6478398,30.59375 C84.4531777,30.59375 88.972709,35.4167852 88.9999455,40.6928164 C89.0144277,43.8109453 87.6881191,47.1677402 85.6207812,49.2446387 L85.6016602,49.2637598 C87.3114336,53.3203867 87.0334824,59.0045664 83.983668,63.077707 C85.4926699,67.5789863 83.9716738,73.1082852 81.1360156,76.0725762 C81.8831289,79.1316035 81.5260859,81.7350273 80.0673203,83.830873 C76.5194883,88.928209 67.7262187,89 60.290373,89 L59.795832,89 C51.4021934,88.9968711 44.5326797,85.9407988 39.0129414,83.4851289 C36.239166,82.251123 32.612416,80.7235215 29.8607168,80.6729375 C28.7238809,80.6520781 27.8125,79.7243574 27.8125,78.5873477 L27.8125,41.4281094 C27.8125,40.8718594 28.0353477,40.3380332 28.4309805,39.9469199 C35.3170078,33.1425918 38.2779961,25.9386328 43.9220215,20.2850469 C46.495373,17.7068281 47.4312637,13.8123828 48.3360391,10.0462227 C49.1090527,6.83022852 50.726002,0 54.234375,0 C58.40625,0 66.75,1.390625 66.75,14.1586484 Z" id="Shape" fill="#000000" fill-rule="nonzero"></path>
            </g>
        </g>
    </g>
</svg>