<?xml version="1.0" encoding="UTF-8"?>
<svg width="89px" height="89px" viewBox="0 0 89 89" version="1.1" xmlns="http://www.w3.org/2000/svg" xmlns:xlink="http://www.w3.org/1999/xlink">
    <title>icons/datadriven</title>
    <defs>
        <filter id="filter-1">
            <feColorMatrix in="SourceGraphic" type="matrix" values="0 0 0 0 0.039216 0 0 0 0 0.431373 0 0 0 0 0.819608 0 0 0 1.000000 0"></feColorMatrix>
        </filter>
    </defs>
    <g id="icons/datadriven" stroke="none" stroke-width="1" fill="none" fill-rule="evenodd" opacity="0.854445685">
        <g filter="url(#filter-1)" id="icomoon-database">
            <g>
                <path d="M44.5,0 C19.92265,0 0,6.22555 0,13.90625 L0,25.03125 C0,32.71195 19.92265,38.9375 44.5,38.9375 C69.07735,38.9375 89,32.71195 89,25.03125 L89,13.90625 C89,6.22555 69.07735,0 44.5,0 Z" id="Path" fill="#000000" fill-rule="nonzero"></path>
                <path d="M44.5,47.28125 C19.92265,47.28125 0,41.0557 0,33.375 L0,50.0625 C0,57.7432 19.92265,63.96875 44.5,63.96875 C69.07735,63.96875 89,57.7432 89,50.0625 L89,33.375 C89,41.0557 69.07735,47.28125 44.5,47.28125 Z" id="Path" fill="#000000" fill-rule="nonzero"></path>
                <path d="M44.5,72.3125 C19.92265,72.3125 0,66.08695 0,58.40625 L0,75.09375 C0,82.77445 19.92265,89 44.5,89 C69.07735,89 89,82.77445 89,75.09375 L89,58.40625 C89,66.08695 69.07735,72.3125 44.5,72.3125 Z" id="Path" fill="#000000" fill-rule="nonzero"></path>
            </g>
        </g>
    </g>
</svg>