<?xml version="1.0" encoding="UTF-8"?>
<svg width="24px" height="24px" viewBox="0 0 24 24" version="1.1" xmlns="http://www.w3.org/2000/svg" xmlns:xlink="http://www.w3.org/1999/xlink">
    <title>icons/email</title>
    <defs>
        <filter id="filter-1">
            <feColorMatrix in="SourceGraphic" type="matrix" values="0 0 0 0 0.039216 0 0 0 0 0.431373 0 0 0 0 0.819608 0 0 0 1.000000 0"></feColorMatrix>
        </filter>
    </defs>
    <g id="icons/email" stroke="none" stroke-width="1" fill="none" fill-rule="evenodd">
        <g filter="url(#filter-1)" id="GoogleMaterial-ic-email-48px">
            <g transform="translate(0.000000, 0.000000)">
                <path d="M20,4 L4,4 C2.895,4 2.01,4.895 2.01,6 L2,18 C2,19.105 2.895,20 4,20 L20,20 C21.105,20 22,19.105 22,18 L22,6 C22,4.895 21.105,4 20,4 Z M20,8 L12,13 L4,8 L4,6 L12,11 L20,6 L20,8 Z" id="Shape" fill="#000000" fill-rule="nonzero"></path>
                <polygon id="Path" points="0 0 24 0 24 24 0 24"></polygon>
            </g>
        </g>
    </g>
</svg>