<?xml version="1.0" encoding="UTF-8"?>
<svg width="30px" height="48px" viewBox="0 0 30 48" version="1.1" xmlns="http://www.w3.org/2000/svg" xmlns:xlink="http://www.w3.org/1999/xlink">
    <title>entypo location</title>
    <defs>
        <filter id="filter-1">
            <feColorMatrix in="SourceGraphic" type="matrix" values="0 0 0 0 0.039216 0 0 0 0 0.431373 0 0 0 0 0.819608 0 0 0 1.000000 0"></feColorMatrix>
        </filter>
    </defs>
    <g id="Symbols" stroke="none" stroke-width="1" fill="none" fill-rule="evenodd">
        <g id="entypo-location" filter="url(#filter-1)">
            <g>
                <path d="M15,0 C19.16,0 22.7,1.46 25.62,4.38 C28.54,7.3 30,10.84 30,15 C30,19.24 28.76,24.1 26.28,29.58 C23.8,35.06 21.28,39.52 18.72,42.96 C18.72,42.96 15,48 15,48 C14.6,47.52 14.06,46.82 13.38,45.9 C12.7,44.98 11.5,43.2 9.78,40.56 C8.06,37.92 6.54,35.32 5.22,32.76 C3.9,30.2 2.7,27.26 1.62,23.94 C0.54,20.62 0,17.64 0,15 C0,10.84 1.46,7.3 4.38,4.38 C7.3,1.46 10.84,0 15,0 C15,0 15,0 15,0 Z M15,23.28 C17.24,23.28 19.16,22.48 20.76,20.88 C22.36,19.28 23.16,17.36 23.16,15.12 C23.16,12.88 22.36,10.98 20.76,9.42 C19.16,7.86 17.24,7.08 15,7.08 C12.76,7.08 10.86,7.86 9.3,9.42 C7.74,10.98 6.96,12.88 6.96,15.12 C6.96,17.36 7.74,19.28 9.3,20.88 C10.86,22.48 12.76,23.28 15,23.28 C15,23.28 15,23.28 15,23.28 Z" id="Shape" fill="#000000" fill-rule="nonzero"></path>
            </g>
        </g>
    </g>
</svg>