<?xml version="1.0" encoding="UTF-8"?>
<svg width="80px" height="89px" viewBox="0 0 80 89" version="1.1" xmlns="http://www.w3.org/2000/svg" xmlns:xlink="http://www.w3.org/1999/xlink">
    <title>icons/innovation</title>
    <defs>
        <filter id="filter-1">
            <feColorMatrix in="SourceGraphic" type="matrix" values="0 0 0 0 0.039216 0 0 0 0 0.431373 0 0 0 0 0.819608 0 0 0 1.000000 0"></feColorMatrix>
        </filter>
    </defs>
    <g id="icons/innovation" stroke="none" stroke-width="1" fill="none" fill-rule="evenodd" opacity="0.854445685">
        <g filter="url(#filter-1)" id="foundation-lightbulb">
            <g>
                <path d="M68.6030307,15.2786695 L68.6030307,15.2786695 L68.6424201,15.2392849 L68.6345422,15.2314079 C69.129273,14.6926263 69.1245463,13.8592477 68.6030307,13.3377953 L68.6030307,13.3377953 L66.6619213,11.3969212 C66.1404057,10.8754688 65.3069262,10.8707427 64.7680792,11.3654135 L64.7602014,11.3575366 L56.4017718,19.7165286 C55.8660761,20.2521594 55.8660761,21.1217719 56.4017718,21.6574027 L56.4017718,21.6574027 L58.3428812,23.5982769 C58.878577,24.1339077 59.7482948,24.1339077 60.2839906,23.5982769 L68.6014551,15.2786695 L68.6030307,15.2786695 Z" id="Path" fill="#000000" fill-rule="nonzero"></path>
                <path d="M38.4982778,14.9983715 L38.4982778,15 L41.4982778,14.9983715 C42.3059701,14.9983715 42.9603904,14.3942026 42.9931114,13.6369558 L43,13.6369558 L43,1.42004126 C43,0.636738682 42.3283582,0.00162848768 41.5,0.00162848768 L41.5,0 L38.5,0.00162848768 C37.6716418,0.00162848768 37,0.636738682 37,1.42004126 L37,13.6369558 L37.0068886,13.6369558 C37.0396096,14.3925741 37.6923077,14.9983715 38.5017222,14.9983715 L38.4982778,14.9983715 Z" id="Path" fill="#000000" fill-rule="nonzero"></path>
                <path d="M80,35.5012912 C80,34.692109 79.3956999,34.0395983 78.6382886,34.0068867 L78.6382886,34 L66.4187208,34 C65.6352481,34 65,34.6697274 65,35.4995696 L65,35.4995696 L65,38.4987088 C65,39.3285509 65.6352481,40 66.4187208,40 L78.6382886,39.9931133 C79.394071,39.9604017 80,39.3061693 80,38.4987088 L80,38.4987088 L80,35.4995696 L80,35.5012912 Z" id="Path" fill="#000000" fill-rule="nonzero"></path>
                <path d="M40.5,20 C29.1769243,20 20,29.1561048 20,40.453492 C20,44.8817988 21.4238118,48.9689737 23.8219795,52.3178307 L23.8139535,52.3178307 C26.8702529,57.0760583 28.7804401,63.379789 28.9216976,70.3241427 C29.1672931,70.7261337 29.6071177,71 30.1127555,71 C30.1673322,71 30.2170934,70.9903907 30.270065,70.9839844 L30.270065,71 L50.6609114,70.9839844 C50.7122778,70.9903907 50.7636442,71 50.8166158,71 C51.3704095,71 51.8439433,70.6764854 52.0718816,70.2104321 C52.2404275,62.9233451 54.3560802,56.345748 57.6997103,51.5314659 C59.7736278,48.3379601 61,44.5454717 61,40.4550936 C61,29.1577063 51.8230757,20 40.5,20 Z" id="Path" fill="#000000" fill-rule="nonzero"></path>
                <path d="M49.6316257,83 C49.5782104,83 49.5295082,83.009544 49.479235,83.0159067 L49.479235,83 L29.5223361,83.0159067 C29.4720628,83.009544 29.4217896,83 29.3683743,83 C28.6127049,83 28,83.6187699 28,84.3854719 L28,87.6145281 C28,88.3796394 28.6127049,89 29.3683743,89 C29.4217896,89 29.4704918,88.990456 29.5223361,88.9840933 L29.5223361,89 L49.479235,88.9840933 C49.5295082,88.990456 49.5797814,89 49.6316257,89 C50.3872951,89 51,88.3796394 51,87.6145281 L51,84.3854719 C51,83.6187699 50.3872951,83 49.6316257,83 Z" id="Path" fill="#000000" fill-rule="nonzero"></path>
                <path d="M49.6316257,74 C49.5782104,74 49.5295082,74.0095415 49.479235,74.0159025 L49.479235,74 L29.5223361,74.0159025 C29.4720628,74.0095415 29.4217896,74 29.3683743,74 C28.6299863,74 28.0298497,74.5947522 28.0047131,75.3389875 C28.0031421,75.3564803 28.001571,75.3755632 28,75.3930559 L28,78.6148953 C28,79.3798039 28.6127049,80 29.3683743,80 C29.4217896,80 29.4704918,79.9904585 29.5223361,79.9840975 L29.5223361,80 L49.479235,79.9840975 C49.5295082,79.9904585 49.5797814,80 49.6316257,80 C50.3872951,80 51,79.3798039 51,78.6148953 L51,75.3851047 C51,74.6186059 50.3872951,74 49.6316257,74 Z" id="Path" fill="#000000" fill-rule="nonzero"></path>
                <path d="M13.6384365,35.0068886 L13.6384365,35 L1.41856678,35 C0.635179153,35 0,35.6716418 0,36.5 L0,39.5 C0,40.3283582 0.635179153,41 1.41856678,41 L13.6384365,40.9948335 C14.3941368,40.9621125 15,40.3076923 15,39.5017222 L15,39.5017222 L15,36.5 C14.9983713,35.6940299 14.3941368,35.0396096 13.6384365,35.0068886 L13.6384365,35.0068886 Z" id="Path" fill="#000000" fill-rule="nonzero"></path>
                <path d="M11.4032985,14.282415 L19.7607151,22.6424201 L19.7685921,22.6345422 C20.3057983,23.129273 21.1391769,23.1245463 21.6606293,22.6030307 L21.6622047,22.6030307 L23.6030788,20.6619213 C24.1245312,20.1404057 24.1292573,19.3069262 23.6345865,18.7680792 L23.6424634,18.7602014 L15.2834714,10.4017718 C14.7478406,9.86607606 13.8782281,9.86607606 13.3425973,10.4017718 L13.3425973,10.4017718 L13.3425973,10.4017718 L11.4017231,12.3428812 C10.8660923,12.8801525 10.8660923,13.7482948 11.4017231,14.2839906 L11.4032985,14.282415 Z" id="Path" fill="#000000" fill-rule="nonzero"></path>
            </g>
        </g>
    </g>
</svg>