<?xml version="1.0" encoding="UTF-8"?>
<svg width="32px" height="32px" viewBox="0 0 32 32" version="1.1" xmlns="http://www.w3.org/2000/svg" xmlns:xlink="http://www.w3.org/1999/xlink">
    <title>icons/instagram</title>
    <defs>
        <filter id="filter-1">
            <feColorMatrix in="SourceGraphic" type="matrix" values="0 0 0 0 1.000000 0 0 0 0 1.000000 0 0 0 0 1.000000 0 0 0 1.000000 0"></feColorMatrix>
        </filter>
    </defs>
    <g id="icons/instagram" stroke="none" stroke-width="1" fill="none" fill-rule="evenodd">
        <g filter="url(#filter-1)" id="JamIcons-instagram-circle">
            <g>
                <path d="M16,0 C7.15,0 0,7.15 0,16 C0,24.85 7.15,32 16,32 C24.85,32 32,24.85 32,16 C32,7.15 24.85,0 16,0 Z M26,20.05 C26,23.35 23.35,26 20.05,26 L11.95,26 C8.7,26 6.1,23.4 6,20.2 L6,11.8 C6.1,8.55 8.75,6 11.95,6 L20.05,6 C23.35,6 26,8.65 26,11.95 L26,20.05 Z M20.05,8 L11.95,8 C9.75,8 8,9.75 8,11.95 L8,20.05 C8,22.25 9.75,24 11.95,24 L20.05,24 C22.25,24 24,22.25 24,20.05 L24,11.95 C24,9.8 22.2,8 20.05,8 L20.05,8 Z M16.25,21.5 C13.35,21.5 11,19.15 11,16.25 C11,13.35 13.35,11 16.25,11 C19.15,11 21.5,13.35 21.5,16.25 C21.5,19.15 19.15,21.5 16.25,21.5 Z M21.25,12 C20.55,12 20,11.45 20,10.75 C20,10.05 20.55,9.5 21.25,9.5 C21.95,9.5 22.5,10.05 22.5,10.75 C22.5,11.45 21.95,12 21.25,12 Z" id="Shape" fill="#343434" fill-rule="nonzero"></path>
                <circle id="Oval" fill="#343434" fill-rule="nonzero" cx="16.25" cy="16.25" r="3.2"></circle>
            </g>
        </g>
    </g>
</svg>