<?xml version="1.0" encoding="UTF-8"?>
<svg width="32px" height="32px" viewBox="0 0 32 32" version="1.1" xmlns="http://www.w3.org/2000/svg" xmlns:xlink="http://www.w3.org/1999/xlink">
    <title>icons/linkedin</title>
    <defs>
        <filter id="filter-1">
            <feColorMatrix in="SourceGraphic" type="matrix" values="0 0 0 0 1.000000 0 0 0 0 1.000000 0 0 0 0 1.000000 0 0 0 1.000000 0"></feColorMatrix>
        </filter>
    </defs>
    <g id="icons/linkedin" stroke="none" stroke-width="1" fill="none" fill-rule="evenodd">
        <g filter="url(#filter-1)" id="ElegantIcons-social-linkedin-circle">
            <g>
                <path d="M16,0 C7.164,0 0,7.164 0,16 C0,24.836 7.164,32 16,32 C24.836,32 32,24.836 32,16 C32,7.162 24.836,0 16,0 Z M12,23.75 L8,23.75 L8,9.75 L12,9.75 L12,23.75 Z M10.124,8.892 C9.088,8.892 8.25,8.052 8.25,7.016 C8.25,5.98 9.09,5.14 10.124,5.14 C11.16,5.142 12,5.982 12,7.016 C12,8.052 11.16,8.892 10.124,8.892 Z M26,23.75 L22,23.75 L22,15.094 C22,14.08 21.71,13.37 20.464,13.37 C18.398,13.37 18,15.094 18,15.094 L18,23.75 L14,23.75 L14,9.75 L18,9.75 L18,11.088 C18.572,10.65 20,9.752 22,9.752 C23.298,9.752 26,10.528 26,15.216 L26,23.75 Z" id="Shape" fill="#000000" fill-rule="nonzero"></path>
            </g>
        </g>
    </g>
</svg>