<?xml version="1.0" encoding="UTF-8"?>
<svg width="32px" height="32px" viewBox="0 0 32 32" version="1.1" xmlns="http://www.w3.org/2000/svg" xmlns:xlink="http://www.w3.org/1999/xlink">
    <title>icons/medium</title>
    <defs>
        <filter id="filter-1">
            <feColorMatrix in="SourceGraphic" type="matrix" values="0 0 0 0 1.000000 0 0 0 0 1.000000 0 0 0 0 1.000000 0 0 0 1.000000 0"></feColorMatrix>
        </filter>
    </defs>
    <g id="icons/medium" stroke="none" stroke-width="1" fill="none" fill-rule="evenodd">
        <g filter="url(#filter-1)" id="JamIcons-medium-circle">
            <g>
                <path d="M16,28.8 C23.0692448,28.8 28.8,23.0692448 28.8,16 C28.8,8.9307552 23.0692448,3.2 16,3.2 C8.9307552,3.2 3.2,8.9307552 3.2,16 C3.2,23.0692448 8.9307552,28.8 16,28.8 Z M16,32 C7.1632,32 0,24.8368 0,16 C0,7.1632 7.1632,0 16,0 C24.8368,0 32,7.1632 32,16 C32,24.8368 24.8368,32 16,32 Z" id="Shape" fill="#000000" fill-rule="nonzero"></path>
                <path d="M9.8976,12.2112 C9.91799926,12.0131799 9.84318351,11.8172339 9.696,11.6832 L8.2016,9.872 L8.2016,9.6 L12.8416,9.6 L16.4256,17.5232 L19.5776,9.6 L24,9.6 L24,9.872 L22.7232,11.104 C22.6125888,11.18898 22.5578353,11.3280171 22.5808,11.4656 L22.5808,20.5344 C22.5584599,20.6714552 22.6131486,20.809713 22.7232,20.8944 L23.9712,22.1296 L23.9712,22.4 L17.696,22.4 L17.696,22.128 L18.9872,20.864 C19.1152,20.736 19.1152,20.6992 19.1152,20.504 L19.1152,13.1744 L15.52,22.3696 L15.0352,22.3696 L10.8528,13.1744 L10.8528,19.3376 C10.8179996,19.5964003 10.9034595,19.8569057 11.0848,20.0448 L12.7648,22.0992 L12.7648,22.3712 L8,22.3712 L8,22.0992 L9.68,20.0448 C9.86024557,19.856717 9.94093482,19.5944769 9.8976,19.3376 L9.8976,12.2112 Z" id="Path" fill="#000000" fill-rule="nonzero"></path>
            </g>
        </g>
    </g>
</svg>