<?xml version="1.0" encoding="UTF-8"?>
<svg width="24px" height="24px" viewBox="0 0 24 24" version="1.1" xmlns="http://www.w3.org/2000/svg" xmlns:xlink="http://www.w3.org/1999/xlink">
    <title>icons/phone</title>
    <defs>
        <filter id="filter-1">
            <feColorMatrix in="SourceGraphic" type="matrix" values="0 0 0 0 0.039216 0 0 0 0 0.431373 0 0 0 0 0.819608 0 0 0 1.000000 0"></feColorMatrix>
        </filter>
    </defs>
    <g id="icons/phone" stroke="none" stroke-width="1" fill="none" fill-rule="evenodd">
        <g filter="url(#filter-1)" id="ElegantIcons-icon-phone">
            <g transform="translate(0.000000, 0.000000)">
                <path d="M9.72315375,5.50727316 C9.41077597,1.91182883 5.66224267,0.147655423 5.50360055,0.075648345 C5.35477135,0.00527779151 5.1879518,-0.015997027 5.0276742,0.0118238895 C0.700178947,0.730258145 0.0492556244,3.25050587 0.0230878526,3.35524344 C-0.0128928336,3.50253065 -0.00635089062,3.65472742 0.03944271,3.79710506 C5.20103569,19.821953 15.9281866,22.7922449 19.4542939,23.76925 C19.7257845,23.8445302 19.9498461,23.9050816 20.1199366,23.9607234 C20.2017109,23.9885443 20.2867561,24 20.3718014,24 C20.4879209,24 20.6040403,23.9754521 20.7103469,23.9263564 C20.818289,23.8772607 23.3663758,22.6760517 23.9894958,18.758212 C24.0172991,18.5880135 23.9894958,18.4112688 23.9109925,18.2574355 C23.855386,18.1494249 22.5224651,15.6111754 18.8262674,14.71436 C18.5678606,14.6472625 18.3029119,14.7159965 18.1033827,14.8861951 C16.9372813,15.8828385 15.3263279,16.9449429 14.6312464,17.05459 C9.97174758,14.7749114 7.36968978,10.4004814 7.27156063,9.57076349 C7.21431863,9.10435401 8.28229082,7.46619298 9.5105406,6.13406204 C9.66591175,5.96550002 9.74441506,5.73638659 9.72315375,5.50727316 Z" id="Path" fill="#000000" fill-rule="nonzero"></path>
            </g>
        </g>
    </g>
</svg>