<svg xmlns="http://www.w3.org/2000/svg" xmlns:xlink="http://www.w3.org/1999/xlink" viewBox="0 0 631.6 288.57"><defs><style>.cls-1{fill:none;}.cls-2{fill:url(#linear-gradient);}.cls-3{clip-path:url(#clip-path);}.cls-4{fill:url(#linear-gradient-2);}.cls-5{fill:url(#linear-gradient-3);}.cls-6{fill:url(#linear-gradient-4);}.cls-7{fill:url(#linear-gradient-5);}.cls-8{fill:url(#linear-gradient-6);}.cls-9{fill:url(#linear-gradient-7);}.cls-10{fill:url(#linear-gradient-8);}.cls-11{fill:url(#linear-gradient-9);}.cls-12{fill:url(#linear-gradient-10);}.cls-13{fill:url(#linear-gradient-11);}.cls-14{fill:url(#linear-gradient-12);}.cls-15{fill:url(#linear-gradient-13);}.cls-16{fill:url(#linear-gradient-14);}.cls-17{fill:url(#linear-gradient-15);}.cls-18{fill:url(#linear-gradient-16);}.cls-19{fill:url(#linear-gradient-17);}.cls-20{fill:url(#linear-gradient-18);}.cls-21{fill:url(#linear-gradient-19);}.cls-22{fill:url(#linear-gradient-20);}.cls-23{fill:url(#linear-gradient-21);}.cls-24{fill:url(#linear-gradient-22);}.cls-25{fill:url(#linear-gradient-23);}.cls-26{fill:url(#linear-gradient-24);}.cls-27{fill:url(#linear-gradient-25);}.cls-28{fill:url(#linear-gradient-26);}.cls-29{fill:url(#linear-gradient-27);}.cls-30{fill:url(#linear-gradient-28);}.cls-31{fill:url(#linear-gradient-29);}.cls-32{fill:url(#linear-gradient-30);}.cls-33{fill:url(#linear-gradient-31);}.cls-34{fill:url(#linear-gradient-32);}.cls-35{fill:url(#linear-gradient-33);}.cls-36{fill:url(#linear-gradient-34);}.cls-37{fill:url(#linear-gradient-35);}.cls-38{fill:url(#linear-gradient-36);}.cls-39{fill:url(#linear-gradient-37);}.cls-40{fill:url(#linear-gradient-38);}.cls-41{fill:url(#linear-gradient-39);}.cls-42{fill:url(#linear-gradient-40);}.cls-43{fill:url(#linear-gradient-41);}.cls-44{fill:url(#linear-gradient-42);}.cls-45{fill:url(#linear-gradient-43);}.cls-46{fill:url(#linear-gradient-44);}.cls-47{fill:url(#linear-gradient-45);}.cls-48{fill:url(#linear-gradient-46);}.cls-49{fill:url(#linear-gradient-47);}.cls-50{fill:url(#linear-gradient-48);}.cls-51{fill:url(#linear-gradient-49);}.cls-52{fill:url(#linear-gradient-50);}.cls-53{fill:url(#linear-gradient-51);}.cls-54{fill:url(#linear-gradient-52);}.cls-55{fill:url(#linear-gradient-53);}.cls-56{fill:url(#linear-gradient-54);}.cls-57{fill:url(#linear-gradient-55);}.cls-58{fill:url(#linear-gradient-56);}.cls-59{fill:url(#linear-gradient-57);}.cls-60{fill:url(#linear-gradient-58);}.cls-61{fill:url(#linear-gradient-59);}.cls-62{fill:url(#linear-gradient-60);}.cls-63{fill:url(#linear-gradient-61);}.cls-64{fill:url(#linear-gradient-62);}.cls-65{fill:url(#linear-gradient-63);}.cls-66{fill:url(#linear-gradient-64);}.cls-67{fill:url(#linear-gradient-65);}.cls-68{fill:url(#linear-gradient-66);}.cls-69{fill:url(#linear-gradient-67);}.cls-70{fill:url(#linear-gradient-68);}.cls-71{fill:url(#linear-gradient-69);}.cls-72{fill:url(#linear-gradient-70);}.cls-73{fill:url(#linear-gradient-71);}.cls-74{fill:url(#linear-gradient-72);}.cls-75{fill:url(#linear-gradient-73);}.cls-76{fill:url(#linear-gradient-74);}.cls-77{fill:url(#linear-gradient-75);}.cls-78{fill:url(#linear-gradient-76);}.cls-79{fill:url(#linear-gradient-77);}.cls-80{fill:url(#linear-gradient-78);}.cls-81{fill:url(#linear-gradient-79);}.cls-82{fill:url(#linear-gradient-80);}.cls-83{fill:url(#linear-gradient-81);}.cls-84{fill:url(#linear-gradient-82);}.cls-85{fill:url(#linear-gradient-83);}.cls-86{fill:url(#linear-gradient-84);}.cls-87{fill:url(#linear-gradient-85);}.cls-88{fill:url(#linear-gradient-86);}.cls-89{fill:url(#linear-gradient-87);}.cls-90{fill:url(#linear-gradient-88);}.cls-91{fill:url(#linear-gradient-89);}.cls-92{fill:url(#linear-gradient-90);}.cls-93{fill:url(#linear-gradient-91);}.cls-94{fill:url(#linear-gradient-92);}.cls-95{fill:url(#linear-gradient-93);}.cls-96{fill:url(#linear-gradient-94);}.cls-97{fill:url(#linear-gradient-95);}.cls-98{fill:url(#linear-gradient-96);}.cls-99{fill:url(#linear-gradient-97);}.cls-100{fill:url(#linear-gradient-98);}.cls-101{fill:url(#linear-gradient-99);}.cls-102{fill:url(#linear-gradient-100);}.cls-103{fill:url(#linear-gradient-101);}.cls-104{fill:url(#linear-gradient-102);}.cls-105{fill:url(#linear-gradient-103);}.cls-106{fill:url(#linear-gradient-104);}.cls-107{fill:url(#linear-gradient-105);}.cls-108{fill:url(#linear-gradient-106);}.cls-109{fill:url(#linear-gradient-107);}.cls-110{fill:url(#linear-gradient-108);}.cls-111{fill:url(#linear-gradient-109);}.cls-112{fill:url(#linear-gradient-110);}.cls-113{fill:url(#linear-gradient-111);}.cls-114{clip-path:url(#clip-path-2);}.cls-115{fill:#1d59b9;}.cls-116{fill:#1d5bba;}.cls-117{fill:#1c5dbb;}.cls-118{fill:#1c5fbd;}.cls-119{fill:#1b60be;}.cls-120{fill:#1b62bf;}.cls-121{fill:#1b64c0;}.cls-122{fill:#1a66c1;}.cls-123{fill:#1a68c2;}.cls-124{fill:#1a69c3;}.cls-125{fill:#196bc4;}.cls-126{fill:#196dc5;}.cls-127{fill:#186ec6;}.cls-128{fill:#1870c7;}.cls-129{fill:#1872c8;}.cls-130{fill:#1773c9;}.cls-131{fill:#1775cb;}.cls-132{fill:#1776cb;}.cls-133{fill:#1678cc;}.cls-134{fill:#1679cd;}.cls-135{fill:#167bce;}.cls-136{fill:#157dcf;}.cls-137{fill:#157ed0;}.cls-138{fill:#157fd1;}.cls-139{fill:#1481d2;}.cls-140{fill:#1482d3;}.cls-141{fill:#1484d4;}.cls-142{fill:#1485d5;}.cls-143{fill:#1386d6;}.cls-144{fill:#1388d6;}.cls-145{fill:#1389d7;}.cls-146{fill:#128ad8;}.cls-147{fill:#128cd9;}.cls-148{fill:#128dda;}.cls-149{fill:#128edb;}.cls-150{fill:#118fdb;}.cls-151{fill:#1191dc;}.cls-152{fill:#1192dd;}.cls-153{fill:#1193de;}.cls-154{fill:#1094de;}.cls-155{fill:#1095df;}.cls-156{fill:#1096e0;}.cls-157{fill:#1098e0;}.cls-158{fill:#0f99e1;}.cls-159{fill:#0f9ae2;}.cls-160{fill:#0f9be2;}.cls-161{fill:#0f9ce3;}.cls-162{fill:#0f9de4;}.cls-163{fill:#0e9ee4;}.cls-164{fill:#0e9fe5;}.cls-165{fill:#0ea0e6;}.cls-166{fill:#0ea1e6;}.cls-167{fill:#0da2e7;}.cls-168{fill:#0da3e8;}.cls-169{fill:#0da4e8;}.cls-170{fill:#0da5e9;}.cls-171{fill:#0da6e9;}.cls-172{fill:#0ca7ea;}.cls-173{fill:#0ca8ea;}.cls-174{fill:#0ca8eb;}.cls-175{fill:#0ca9eb;}.cls-176{fill:#0caaec;}.cls-177{fill:#0cabec;}.cls-178{fill:#0babed;}.cls-179{fill:#0baced;}.cls-180{fill:#0badee;}.cls-181{fill:#0baeee;}.cls-182{fill:#0baeef;}.cls-183{fill:#0bafef;}.cls-184{fill:#0ab0f0;}.cls-185{fill:#0ab1f0;}.cls-186{fill:#0ab1f1;}.cls-187{fill:#0ab2f1;}.cls-188{fill:url(#linear-gradient-112);}</style><linearGradient id="linear-gradient" x1="207.26" y1="1177.93" x2="622.27" y2="1177.93" gradientTransform="translate(0 -1035.1)" gradientUnits="userSpaceOnUse"><stop offset="0" stop-color="#13a6e9"/><stop offset="0.43" stop-color="#0dafef"/><stop offset="1" stop-color="#0ab2f1"/></linearGradient><clipPath id="clip-path"><path class="cls-1" d="M524.66,117.71H469.39v54.54A103.49,103.49,0,0,0,440.69,140a105.52,105.52,0,0,0-66-23l-79.66.72H262a55.14,55.14,0,0,1-51.68-35.89,56.23,56.23,0,0,1,15.08-59.57c3.59-3.59,7.89-5.74,12.92-7.9,6.46-3.58,14.35-5,21.53-5H497.39c65.31,0,124.88,64.6,124.88,134.93,0,62.45-41.63,118.43-97.61,132.07ZM497.39,36.6a27.28,27.28,0,1,0,27.27,27.28h0A27.27,27.27,0,0,0,497.39,36.6Z"/></clipPath><linearGradient id="linear-gradient-2" x1="469.82" y1="1125.53" x2="524.95" y2="1125.53" xlink:href="#linear-gradient"/><linearGradient id="linear-gradient-3" x1="469.82" y1="1123.38" x2="524.95" y2="1123.38" xlink:href="#linear-gradient"/><linearGradient id="linear-gradient-4" x1="469.82" y1="1120.51" x2="524.95" y2="1120.51" xlink:href="#linear-gradient"/><linearGradient id="linear-gradient-5" x1="469.82" y1="1117.64" x2="524.95" y2="1117.64" xlink:href="#linear-gradient"/><linearGradient id="linear-gradient-6" x1="469.82" y1="1114.77" x2="524.95" y2="1114.77" xlink:href="#linear-gradient"/><linearGradient id="linear-gradient-7" x1="469.82" y1="1111.18" x2="524.95" y2="1111.18" xlink:href="#linear-gradient"/><linearGradient id="linear-gradient-8" x1="469.82" y1="1108.31" x2="524.95" y2="1108.31" xlink:href="#linear-gradient"/><linearGradient id="linear-gradient-9" x1="469.82" y1="1105.44" x2="524.95" y2="1105.44" xlink:href="#linear-gradient"/><linearGradient id="linear-gradient-10" x1="469.82" y1="1102.57" x2="524.95" y2="1102.57" xlink:href="#linear-gradient"/><linearGradient id="linear-gradient-11" x1="469.82" y1="1099.7" x2="524.95" y2="1099.7" xlink:href="#linear-gradient"/><linearGradient id="linear-gradient-12" x1="469.82" y1="1096.82" x2="524.95" y2="1096.82" xlink:href="#linear-gradient"/><linearGradient id="linear-gradient-13" x1="469.82" y1="1093.24" x2="524.95" y2="1093.24" xlink:href="#linear-gradient"/><linearGradient id="linear-gradient-14" x1="469.82" y1="1090.37" x2="524.95" y2="1090.37" xlink:href="#linear-gradient"/><linearGradient id="linear-gradient-15" x1="469.82" y1="1087.49" x2="524.95" y2="1087.49" xlink:href="#linear-gradient"/><linearGradient id="linear-gradient-16" x1="469.82" y1="1084.62" x2="524.95" y2="1084.62" xlink:href="#linear-gradient"/><linearGradient id="linear-gradient-17" x1="469.82" y1="1081.75" x2="524.95" y2="1081.75" xlink:href="#linear-gradient"/><linearGradient id="linear-gradient-18" x1="469.82" y1="1078.16" x2="524.95" y2="1078.16" xlink:href="#linear-gradient"/><linearGradient id="linear-gradient-19" x1="469.82" y1="1075.29" x2="524.95" y2="1075.29" xlink:href="#linear-gradient"/><linearGradient id="linear-gradient-20" x1="469.82" y1="1072.78" x2="524.95" y2="1072.78" xlink:href="#linear-gradient"/><linearGradient id="linear-gradient-21" x1="203.12" y1="1309.99" x2="622.27" y2="1309.99" xlink:href="#linear-gradient"/><linearGradient id="linear-gradient-22" x1="203.12" y1="1307.12" x2="622.27" y2="1307.12" xlink:href="#linear-gradient"/><linearGradient id="linear-gradient-23" x1="203.12" y1="1304.25" x2="622.27" y2="1304.25" xlink:href="#linear-gradient"/><linearGradient id="linear-gradient-24" x1="203.12" y1="1300.66" x2="622.27" y2="1300.66" xlink:href="#linear-gradient"/><linearGradient id="linear-gradient-25" x1="203.12" y1="1297.79" x2="622.27" y2="1297.79" xlink:href="#linear-gradient"/><linearGradient id="linear-gradient-26" x1="203.12" y1="1294.92" x2="622.27" y2="1294.92" xlink:href="#linear-gradient"/><linearGradient id="linear-gradient-27" x1="203.12" y1="1292.05" x2="622.27" y2="1292.05" xlink:href="#linear-gradient"/><linearGradient id="linear-gradient-28" x1="203.12" y1="1289.18" x2="622.27" y2="1289.18" xlink:href="#linear-gradient"/><linearGradient id="linear-gradient-29" x1="203.12" y1="1286.3" x2="622.27" y2="1286.3" xlink:href="#linear-gradient"/><linearGradient id="linear-gradient-30" x1="203.12" y1="1282.72" x2="622.27" y2="1282.72" xlink:href="#linear-gradient"/><linearGradient id="linear-gradient-31" x1="203.12" y1="1279.85" x2="622.27" y2="1279.85" xlink:href="#linear-gradient"/><linearGradient id="linear-gradient-32" x1="203.12" y1="1276.97" x2="622.27" y2="1276.97" xlink:href="#linear-gradient"/><linearGradient id="linear-gradient-33" x1="203.12" y1="1274.1" x2="622.27" y2="1274.1" xlink:href="#linear-gradient"/><linearGradient id="linear-gradient-34" x1="203.12" y1="1271.23" x2="622.27" y2="1271.23" xlink:href="#linear-gradient"/><linearGradient id="linear-gradient-35" x1="203.12" y1="1267.64" x2="622.27" y2="1267.64" xlink:href="#linear-gradient"/><linearGradient id="linear-gradient-36" x1="203.12" y1="1264.77" x2="622.27" y2="1264.77" xlink:href="#linear-gradient"/><linearGradient id="linear-gradient-37" x1="203.12" y1="1261.9" x2="622.27" y2="1261.9" xlink:href="#linear-gradient"/><linearGradient id="linear-gradient-38" x1="203.12" y1="1259.03" x2="622.27" y2="1259.03" xlink:href="#linear-gradient"/><linearGradient id="linear-gradient-39" x1="203.12" y1="1256.16" x2="622.27" y2="1256.16" xlink:href="#linear-gradient"/><linearGradient id="linear-gradient-40" x1="203.12" y1="1252.57" x2="622.27" y2="1252.57" xlink:href="#linear-gradient"/><linearGradient id="linear-gradient-41" x1="203.12" y1="1249.7" x2="622.27" y2="1249.7" xlink:href="#linear-gradient"/><linearGradient id="linear-gradient-42" x1="203.12" y1="1246.83" x2="622.27" y2="1246.83" xlink:href="#linear-gradient"/><linearGradient id="linear-gradient-43" x1="203.12" y1="1243.96" x2="622.27" y2="1243.96" xlink:href="#linear-gradient"/><linearGradient id="linear-gradient-44" x1="203.12" y1="1241.09" x2="622.27" y2="1241.09" xlink:href="#linear-gradient"/><linearGradient id="linear-gradient-45" x1="203.12" y1="1237.5" x2="622.27" y2="1237.5" xlink:href="#linear-gradient"/><linearGradient id="linear-gradient-46" x1="203.12" y1="1234.63" x2="622.27" y2="1234.63" xlink:href="#linear-gradient"/><linearGradient id="linear-gradient-47" x1="203.12" y1="1231.76" x2="622.27" y2="1231.76" xlink:href="#linear-gradient"/><linearGradient id="linear-gradient-48" x1="203.12" y1="1228.89" x2="622.27" y2="1228.89" xlink:href="#linear-gradient"/><linearGradient id="linear-gradient-49" x1="203.12" y1="1226.02" x2="622.27" y2="1226.02" xlink:href="#linear-gradient"/><linearGradient id="linear-gradient-50" x1="203.12" y1="1222.43" x2="622.27" y2="1222.43" xlink:href="#linear-gradient"/><linearGradient id="linear-gradient-51" x1="203.12" y1="1219.56" x2="622.27" y2="1219.56" xlink:href="#linear-gradient"/><linearGradient id="linear-gradient-52" x1="203.12" y1="1216.69" x2="622.27" y2="1216.69" xlink:href="#linear-gradient"/><linearGradient id="linear-gradient-53" x1="203.12" y1="1213.81" x2="622.27" y2="1213.81" xlink:href="#linear-gradient"/><linearGradient id="linear-gradient-54" x1="203.12" y1="1210.94" x2="622.27" y2="1210.94" xlink:href="#linear-gradient"/><linearGradient id="linear-gradient-55" x1="203.12" y1="1208.07" x2="622.27" y2="1208.07" xlink:href="#linear-gradient"/><linearGradient id="linear-gradient-56" x1="203.12" y1="1204.48" x2="622.27" y2="1204.48" xlink:href="#linear-gradient"/><linearGradient id="linear-gradient-57" x1="203.12" y1="1201.61" x2="622.27" y2="1201.61" xlink:href="#linear-gradient"/><linearGradient id="linear-gradient-58" x1="203.12" y1="1198.74" x2="622.27" y2="1198.74" xlink:href="#linear-gradient"/><linearGradient id="linear-gradient-59" x1="203.12" y1="1195.87" x2="622.27" y2="1195.87" xlink:href="#linear-gradient"/><linearGradient id="linear-gradient-60" x1="203.12" y1="1193" x2="622.27" y2="1193" xlink:href="#linear-gradient"/><linearGradient id="linear-gradient-61" x1="203.12" y1="1189.41" x2="622.27" y2="1189.41" xlink:href="#linear-gradient"/><linearGradient id="linear-gradient-62" x1="203.12" y1="1186.54" x2="622.27" y2="1186.54" xlink:href="#linear-gradient"/><linearGradient id="linear-gradient-63" x1="203.12" y1="1183.67" x2="622.27" y2="1183.67" xlink:href="#linear-gradient"/><linearGradient id="linear-gradient-64" x1="203.12" y1="1180.8" x2="622.27" y2="1180.8" xlink:href="#linear-gradient"/><linearGradient id="linear-gradient-65" x1="203.12" y1="1177.93" x2="622.27" y2="1177.93" xlink:href="#linear-gradient"/><linearGradient id="linear-gradient-66" x1="203.12" y1="1174.34" x2="622.27" y2="1174.34" xlink:href="#linear-gradient"/><linearGradient id="linear-gradient-67" x1="203.12" y1="1171.47" x2="622.27" y2="1171.47" xlink:href="#linear-gradient"/><linearGradient id="linear-gradient-68" x1="203.12" y1="1168.6" x2="622.27" y2="1168.6" xlink:href="#linear-gradient"/><linearGradient id="linear-gradient-69" x1="203.12" y1="1165.73" x2="622.27" y2="1165.73" xlink:href="#linear-gradient"/><linearGradient id="linear-gradient-70" x1="203.12" y1="1162.86" x2="622.27" y2="1162.86" xlink:href="#linear-gradient"/><linearGradient id="linear-gradient-71" x1="203.12" y1="1159.27" x2="622.27" y2="1159.27" xlink:href="#linear-gradient"/><linearGradient id="linear-gradient-72" x1="203.12" y1="1156.4" x2="622.27" y2="1156.4" xlink:href="#linear-gradient"/><linearGradient id="linear-gradient-73" x1="203.12" y1="1153.53" x2="622.27" y2="1153.53" xlink:href="#linear-gradient"/><linearGradient id="linear-gradient-74" x1="203.12" y1="1150.65" x2="622.27" y2="1150.65" xlink:href="#linear-gradient"/><linearGradient id="linear-gradient-75" x1="203.12" y1="1147.78" x2="622.27" y2="1147.78" xlink:href="#linear-gradient"/><linearGradient id="linear-gradient-76" x1="203.12" y1="1144.91" x2="622.27" y2="1144.91" xlink:href="#linear-gradient"/><linearGradient id="linear-gradient-77" x1="203.12" y1="1141.32" x2="622.27" y2="1141.32" xlink:href="#linear-gradient"/><linearGradient id="linear-gradient-78" x1="203.12" y1="1138.45" x2="622.27" y2="1138.45" xlink:href="#linear-gradient"/><linearGradient id="linear-gradient-79" x1="203.12" y1="1135.58" x2="622.27" y2="1135.58" xlink:href="#linear-gradient"/><linearGradient id="linear-gradient-80" x1="203.12" y1="1132.71" x2="622.27" y2="1132.71" xlink:href="#linear-gradient"/><linearGradient id="linear-gradient-81" x1="203.12" y1="1129.84" x2="622.27" y2="1129.84" xlink:href="#linear-gradient"/><linearGradient id="linear-gradient-82" x1="203.12" y1="1126.25" x2="622.27" y2="1126.25" xlink:href="#linear-gradient"/><linearGradient id="linear-gradient-83" x1="203.12" y1="1123.38" x2="622.27" y2="1123.38" xlink:href="#linear-gradient"/><linearGradient id="linear-gradient-84" x1="203.12" y1="1120.51" x2="622.27" y2="1120.51" xlink:href="#linear-gradient"/><linearGradient id="linear-gradient-85" x1="203.12" y1="1117.64" x2="622.27" y2="1117.64" xlink:href="#linear-gradient"/><linearGradient id="linear-gradient-86" x1="203.12" y1="1114.77" x2="622.27" y2="1114.77" xlink:href="#linear-gradient"/><linearGradient id="linear-gradient-87" x1="203.12" y1="1111.18" x2="622.27" y2="1111.18" xlink:href="#linear-gradient"/><linearGradient id="linear-gradient-88" x1="203.12" y1="1108.31" x2="622.27" y2="1108.31" xlink:href="#linear-gradient"/><linearGradient id="linear-gradient-89" x1="203.12" y1="1105.44" x2="622.27" y2="1105.44" xlink:href="#linear-gradient"/><linearGradient id="linear-gradient-90" x1="203.12" y1="1102.57" x2="622.27" y2="1102.57" xlink:href="#linear-gradient"/><linearGradient id="linear-gradient-91" x1="203.12" y1="1099.7" x2="622.27" y2="1099.7" xlink:href="#linear-gradient"/><linearGradient id="linear-gradient-92" x1="203.12" y1="1096.82" x2="622.27" y2="1096.82" xlink:href="#linear-gradient"/><linearGradient id="linear-gradient-93" x1="203.12" y1="1093.24" x2="622.27" y2="1093.24" xlink:href="#linear-gradient"/><linearGradient id="linear-gradient-94" x1="203.12" y1="1090.37" x2="622.27" y2="1090.37" xlink:href="#linear-gradient"/><linearGradient id="linear-gradient-95" x1="203.12" y1="1087.49" x2="622.27" y2="1087.49" xlink:href="#linear-gradient"/><linearGradient id="linear-gradient-96" x1="203.12" y1="1084.62" x2="622.27" y2="1084.62" xlink:href="#linear-gradient"/><linearGradient id="linear-gradient-97" x1="203.12" y1="1081.75" x2="622.27" y2="1081.75" xlink:href="#linear-gradient"/><linearGradient id="linear-gradient-98" x1="203.12" y1="1078.16" x2="622.27" y2="1078.16" xlink:href="#linear-gradient"/><linearGradient id="linear-gradient-99" x1="203.12" y1="1075.29" x2="622.27" y2="1075.29" xlink:href="#linear-gradient"/><linearGradient id="linear-gradient-100" x1="203.12" y1="1072.42" x2="622.27" y2="1072.42" xlink:href="#linear-gradient"/><linearGradient id="linear-gradient-101" x1="203.12" y1="1069.55" x2="622.27" y2="1069.55" xlink:href="#linear-gradient"/><linearGradient id="linear-gradient-102" x1="203.12" y1="1066.68" x2="622.27" y2="1066.68" xlink:href="#linear-gradient"/><linearGradient id="linear-gradient-103" x1="203.12" y1="1063.09" x2="622.27" y2="1063.09" xlink:href="#linear-gradient"/><linearGradient id="linear-gradient-104" x1="203.12" y1="1060.22" x2="622.27" y2="1060.22" xlink:href="#linear-gradient"/><linearGradient id="linear-gradient-105" x1="203.12" y1="1057.35" x2="622.27" y2="1057.35" xlink:href="#linear-gradient"/><linearGradient id="linear-gradient-106" x1="203.12" y1="1054.48" x2="622.27" y2="1054.48" xlink:href="#linear-gradient"/><linearGradient id="linear-gradient-107" x1="203.12" y1="1051.61" x2="622.27" y2="1051.61" xlink:href="#linear-gradient"/><linearGradient id="linear-gradient-108" x1="203.12" y1="1048.02" x2="622.27" y2="1048.02" xlink:href="#linear-gradient"/><linearGradient id="linear-gradient-109" x1="203.12" y1="1045.15" x2="622.27" y2="1045.15" xlink:href="#linear-gradient"/><linearGradient id="linear-gradient-110" x1="460.78" y1="1098.98" x2="533.85" y2="1098.98" xlink:href="#linear-gradient"/><linearGradient id="linear-gradient-111" x1="198.78" y1="1178.65" x2="631.6" y2="1178.65" xlink:href="#linear-gradient"/><clipPath id="clip-path-2"><path class="cls-1" d="M144.26,279.91c-74.64,0-135.65-61-135.65-135.65S69.62,8.61,144.26,8.61h26.56a95.24,95.24,0,0,0-16.51,53.83c0,59.57,48.09,107.66,108.38,108.38h40.19c24.4,0,48.81,0,73.21-.72,20.81,0,40.19,12.2,48.81,30.86,1.43,3.59,2.87,7.18,4.3,11.49,3.59,17.22-.72,34.45-12.2,47.37-12.2,12.92-28.71,20.09-45.22,20.09Z"/></clipPath><linearGradient id="linear-gradient-112" x1="219.61" y1="1323.67" x2="219.61" y2="1035.1" gradientTransform="translate(0 -1035.1)" gradientUnits="userSpaceOnUse"><stop offset="0" stop-color="#1d59b9"/><stop offset="0.12" stop-color="#196dc5"/><stop offset="0.36" stop-color="#128bd8"/><stop offset="0.58" stop-color="#0ea1e6"/><stop offset="0.8" stop-color="#0baeee"/><stop offset="1" stop-color="#0ab2f1"/></linearGradient></defs><g id="Layer_2" data-name="Layer 2"><g id="Default"><path class="cls-2" d="M524.66,117.71H469.39v54.54A103.49,103.49,0,0,0,440.69,140a105.52,105.52,0,0,0-66-23l-79.66.72H262a55.14,55.14,0,0,1-51.68-35.89,56.23,56.23,0,0,1,15.08-59.57c3.59-3.59,7.89-5.74,12.92-7.9,6.46-3.58,14.35-5,21.53-5H497.39c65.31,0,124.88,64.6,124.88,134.93,0,62.45-41.63,118.43-97.61,132.07ZM497.39,36.6a27.28,27.28,0,1,0,27.27,27.28h0A27.27,27.27,0,0,0,497.39,36.6Z"/><g class="cls-3"><rect class="cls-4" x="470.11" y="89.72" width="55.27" height="1.44"/><rect class="cls-5" x="470.11" y="86.85" width="55.27" height="2.87"/><rect class="cls-6" x="470.11" y="83.97" width="55.27" height="2.87"/><rect class="cls-7" x="470.11" y="81.1" width="55.27" height="2.87"/><rect class="cls-8" x="470.11" y="78.23" width="55.27" height="2.87"/><rect class="cls-9" x="470.11" y="74.64" width="55.27" height="2.87"/><rect class="cls-10" x="470.11" y="71.77" width="55.27" height="2.87"/><rect class="cls-11" x="470.11" y="68.9" width="55.27" height="2.87"/><rect class="cls-12" x="470.11" y="66.03" width="55.27" height="2.87"/><rect class="cls-13" x="470.11" y="63.16" width="55.27" height="2.87"/><rect class="cls-14" x="470.11" y="60.29" width="55.27" height="2.87"/><rect class="cls-15" x="470.11" y="56.7" width="55.27" height="2.87"/><rect class="cls-16" x="470.11" y="53.83" width="55.27" height="2.87"/><rect class="cls-17" x="470.11" y="50.96" width="55.27" height="2.87"/><rect class="cls-18" x="470.11" y="48.09" width="55.27" height="2.87"/><rect class="cls-19" x="470.11" y="45.22" width="55.27" height="2.87"/><rect class="cls-20" x="470.11" y="41.63" width="55.27" height="2.87"/><rect class="cls-21" x="470.11" y="38.76" width="55.27" height="2.87"/><rect class="cls-22" x="470.11" y="36.6" width="55.27" height="2.15"/><rect class="cls-23" x="203.12" y="273.45" width="419.15" height="2.87"/><rect class="cls-24" x="203.12" y="270.58" width="419.15" height="2.87"/><rect class="cls-25" x="203.12" y="267.71" width="419.15" height="2.87"/><rect class="cls-26" x="203.12" y="264.12" width="419.15" height="2.87"/><rect class="cls-27" x="203.12" y="261.25" width="419.15" height="2.87"/><rect class="cls-28" x="203.12" y="258.38" width="419.15" height="2.87"/><rect class="cls-29" x="203.12" y="255.51" width="419.15" height="2.87"/><rect class="cls-30" x="203.12" y="252.64" width="419.15" height="2.87"/><rect class="cls-31" x="203.12" y="249.77" width="419.15" height="2.87"/><rect class="cls-32" x="203.12" y="246.18" width="419.15" height="2.87"/><rect class="cls-33" x="203.12" y="243.31" width="419.15" height="2.87"/><rect class="cls-34" x="203.12" y="240.44" width="419.15" height="2.87"/><rect class="cls-35" x="203.12" y="237.57" width="419.15" height="2.87"/><rect class="cls-36" x="203.12" y="234.7" width="419.15" height="2.87"/><rect class="cls-37" x="203.12" y="231.11" width="419.15" height="2.87"/><rect class="cls-38" x="203.12" y="228.24" width="419.15" height="2.87"/><rect class="cls-39" x="203.12" y="225.37" width="419.15" height="2.87"/><rect class="cls-40" x="203.12" y="222.5" width="419.15" height="2.87"/><rect class="cls-41" x="203.12" y="219.62" width="419.15" height="2.87"/><rect class="cls-42" x="203.12" y="216.04" width="419.15" height="2.87"/><rect class="cls-43" x="203.12" y="213.17" width="419.15" height="2.87"/><rect class="cls-44" x="203.12" y="210.29" width="419.15" height="2.87"/><rect class="cls-45" x="203.12" y="207.42" width="419.15" height="2.87"/><rect class="cls-46" x="203.12" y="204.55" width="419.15" height="2.87"/><rect class="cls-47" x="203.12" y="200.96" width="419.15" height="2.87"/><rect class="cls-48" x="203.12" y="198.09" width="419.15" height="2.87"/><rect class="cls-49" x="203.12" y="195.22" width="419.15" height="2.87"/><rect class="cls-50" x="203.12" y="192.35" width="419.15" height="2.87"/><rect class="cls-51" x="203.12" y="189.48" width="419.15" height="2.87"/><rect class="cls-52" x="203.12" y="185.89" width="419.15" height="2.87"/><rect class="cls-53" x="203.12" y="183.02" width="419.15" height="2.87"/><rect class="cls-54" x="203.12" y="180.15" width="419.15" height="2.87"/><rect class="cls-55" x="203.12" y="177.28" width="419.15" height="2.87"/><rect class="cls-56" x="203.12" y="174.41" width="419.15" height="2.87"/><rect class="cls-57" x="203.12" y="171.54" width="419.15" height="2.87"/><rect class="cls-58" x="203.12" y="167.95" width="419.15" height="2.87"/><rect class="cls-59" x="203.12" y="165.08" width="419.15" height="2.87"/><rect class="cls-60" x="203.12" y="162.21" width="419.15" height="2.87"/><rect class="cls-61" x="203.12" y="159.34" width="419.15" height="2.87"/><rect class="cls-62" x="203.12" y="156.46" width="419.15" height="2.87"/><rect class="cls-63" x="203.12" y="152.88" width="419.15" height="2.87"/><rect class="cls-64" x="203.12" y="150.01" width="419.15" height="2.87"/><rect class="cls-65" x="203.12" y="147.13" width="419.15" height="2.87"/><rect class="cls-66" x="203.12" y="144.26" width="419.15" height="2.87"/><rect class="cls-67" x="203.12" y="141.39" width="419.15" height="2.87"/><rect class="cls-68" x="203.12" y="137.8" width="419.15" height="2.87"/><rect class="cls-69" x="203.12" y="134.93" width="419.15" height="2.87"/><rect class="cls-70" x="203.12" y="132.06" width="419.15" height="2.87"/><rect class="cls-71" x="203.12" y="129.19" width="419.15" height="2.87"/><rect class="cls-72" x="203.12" y="126.32" width="419.15" height="2.87"/><rect class="cls-73" x="203.12" y="122.73" width="419.15" height="2.87"/><rect class="cls-74" x="203.12" y="119.86" width="419.15" height="2.87"/><rect class="cls-75" x="203.12" y="116.99" width="419.15" height="2.87"/><rect class="cls-76" x="203.12" y="114.12" width="419.15" height="2.87"/><rect class="cls-77" x="203.12" y="111.25" width="419.15" height="2.87"/><rect class="cls-78" x="203.12" y="108.38" width="419.15" height="2.87"/><rect class="cls-79" x="203.12" y="104.79" width="419.15" height="2.87"/><rect class="cls-80" x="203.12" y="101.92" width="419.15" height="2.87"/><rect class="cls-81" x="203.12" y="99.05" width="419.15" height="2.87"/><rect class="cls-82" x="203.12" y="96.18" width="419.15" height="2.87"/><rect class="cls-83" x="203.12" y="93.3" width="419.15" height="2.87"/><rect class="cls-84" x="203.12" y="89.72" width="419.15" height="2.87"/><rect class="cls-85" x="203.12" y="86.85" width="419.15" height="2.87"/><rect class="cls-86" x="203.12" y="83.97" width="419.15" height="2.87"/><rect class="cls-87" x="203.12" y="81.1" width="419.15" height="2.87"/><rect class="cls-88" x="203.12" y="78.23" width="419.15" height="2.87"/><rect class="cls-89" x="203.12" y="74.64" width="419.15" height="2.87"/><rect class="cls-90" x="203.12" y="71.77" width="419.15" height="2.87"/><rect class="cls-91" x="203.12" y="68.9" width="419.15" height="2.87"/><rect class="cls-92" x="203.12" y="66.03" width="419.15" height="2.87"/><rect class="cls-93" x="203.12" y="63.16" width="419.15" height="2.87"/><rect class="cls-94" x="203.12" y="60.29" width="419.15" height="2.87"/><rect class="cls-95" x="203.12" y="56.7" width="419.15" height="2.87"/><rect class="cls-96" x="203.12" y="53.83" width="419.15" height="2.87"/><rect class="cls-97" x="203.12" y="50.96" width="419.15" height="2.87"/><rect class="cls-98" x="203.12" y="48.09" width="419.15" height="2.87"/><rect class="cls-99" x="203.12" y="45.22" width="419.15" height="2.87"/><rect class="cls-100" x="203.12" y="41.63" width="419.15" height="2.87"/><rect class="cls-101" x="203.12" y="38.76" width="419.15" height="2.87"/><rect class="cls-102" x="203.12" y="35.89" width="419.15" height="2.87"/><rect class="cls-103" x="203.12" y="33.02" width="419.15" height="2.87"/><rect class="cls-104" x="203.12" y="30.14" width="419.15" height="2.87"/><rect class="cls-105" x="203.12" y="26.56" width="419.15" height="2.87"/><rect class="cls-106" x="203.12" y="23.69" width="419.15" height="2.87"/><rect class="cls-107" x="203.12" y="20.81" width="419.15" height="2.87"/><rect class="cls-108" x="203.12" y="17.94" width="419.15" height="2.87"/><rect class="cls-109" x="203.12" y="15.07" width="419.15" height="2.87"/><rect class="cls-110" x="203.12" y="11.48" width="419.15" height="2.87"/><rect class="cls-111" x="203.12" y="8.61" width="419.15" height="2.87"/></g><path class="cls-112" d="M497.39,27.27A36.61,36.61,0,1,0,534,63.88h0A36.76,36.76,0,0,0,497.39,27.27Zm0,55.27a18.54,18.54,0,0,1-18.67-18.66c0-10.77,7.9-18.66,18.67-18.66a18.53,18.53,0,0,1,18.66,18.66A19,19,0,0,1,497.39,82.54Zm0-55.27A36.61,36.61,0,1,0,534,63.88h0A36.76,36.76,0,0,0,497.39,27.27Zm0,55.27a18.54,18.54,0,0,1-18.67-18.66c0-10.77,7.9-18.66,18.67-18.66a18.53,18.53,0,0,1,18.66,18.66A19,19,0,0,1,497.39,82.54Zm0-55.27A36.61,36.61,0,1,0,534,63.88h0A36.76,36.76,0,0,0,497.39,27.27Zm0,55.27a18.54,18.54,0,0,1-18.67-18.66c0-10.77,7.9-18.66,18.67-18.66a18.53,18.53,0,0,1,18.66,18.66A19,19,0,0,1,497.39,82.54Z"/><path class="cls-113" d="M497.39,0H259.82A55.07,55.07,0,0,0,234,6.46c-5,2.87-10,5.74-14.36,9.33a64.92,64.92,0,0,0-17.22,68.9c8.61,25.84,33,42.35,60.29,42.35h33.73l79.67-.72a98.11,98.11,0,0,1,61,20.81c17.22,12.92,29.42,30.87,34.45,51l7.89,28.71V126.32h36.61V287.09l5-.72c63.16-12.2,110.53-73.2,110.53-142.11C631.6,68.9,567.72,0,497.39,0ZM534,264.12V108.38H460.78V145c-4.3-4.31-8.61-8.61-13.64-12.92a118.71,118.71,0,0,0-71.77-24.4H262.69c-19.38,0-36.61-11.48-43.07-30.15A45.44,45.44,0,0,1,231.83,28a93.63,93.63,0,0,1,10.76-7.18,49.42,49.42,0,0,1,17.23-3.58H497.39c60.28,0,116.27,60.28,116.27,126.32C613.66,198.81,579.92,246.9,534,264.12Z"/><g class="cls-114"><rect class="cls-115" x="9.33" y="276.33" width="422.74" height="2.87"/><rect class="cls-116" x="9.33" y="273.45" width="422.74" height="2.87"/><rect class="cls-117" x="9.33" y="270.58" width="422.74" height="2.87"/><rect class="cls-118" x="9.33" y="267.71" width="422.74" height="2.87"/><rect class="cls-119" x="9.33" y="264.12" width="422.74" height="2.87"/><rect class="cls-120" x="9.33" y="261.25" width="422.74" height="2.87"/><rect class="cls-121" x="9.33" y="258.38" width="422.74" height="2.87"/><rect class="cls-122" x="9.33" y="255.51" width="422.74" height="2.87"/><rect class="cls-123" x="9.33" y="252.64" width="422.74" height="2.87"/><rect class="cls-124" x="9.33" y="249.05" width="422.74" height="2.87"/><rect class="cls-125" x="9.33" y="246.18" width="422.74" height="2.87"/><rect class="cls-126" x="9.33" y="243.31" width="422.74" height="2.87"/><rect class="cls-127" x="9.33" y="240.44" width="422.74" height="2.87"/><rect class="cls-128" x="9.33" y="236.85" width="422.74" height="2.87"/><rect class="cls-129" x="9.33" y="233.98" width="422.74" height="2.87"/><rect class="cls-130" x="9.33" y="231.11" width="422.74" height="2.87"/><rect class="cls-131" x="9.33" y="228.24" width="422.74" height="2.87"/><rect class="cls-132" x="9.33" y="224.65" width="422.74" height="2.87"/><rect class="cls-133" x="9.33" y="221.78" width="422.74" height="2.87"/><rect class="cls-134" x="9.33" y="218.91" width="422.74" height="2.87"/><rect class="cls-135" x="9.33" y="216.04" width="422.74" height="2.87"/><rect class="cls-136" x="9.33" y="212.45" width="422.74" height="2.87"/><rect class="cls-137" x="9.33" y="209.58" width="422.74" height="2.87"/><rect class="cls-138" x="9.33" y="206.71" width="422.74" height="2.87"/><rect class="cls-139" x="9.33" y="203.83" width="422.74" height="2.87"/><rect class="cls-140" x="9.33" y="200.25" width="422.74" height="2.87"/><rect class="cls-141" x="9.33" y="197.38" width="422.74" height="2.87"/><rect class="cls-142" x="9.33" y="194.5" width="422.74" height="2.87"/><rect class="cls-143" x="9.33" y="191.63" width="422.74" height="2.87"/><rect class="cls-144" x="9.33" y="188.76" width="422.74" height="2.87"/><rect class="cls-145" x="9.33" y="185.17" width="422.74" height="2.87"/><rect class="cls-146" x="9.33" y="182.3" width="422.74" height="2.87"/><rect class="cls-147" x="9.33" y="179.43" width="422.74" height="2.87"/><rect class="cls-148" x="9.33" y="176.56" width="422.74" height="2.87"/><rect class="cls-149" x="9.33" y="172.97" width="422.74" height="2.87"/><rect class="cls-150" x="9.33" y="170.1" width="422.74" height="2.87"/><rect class="cls-151" x="9.33" y="167.23" width="422.74" height="2.87"/><rect class="cls-152" x="9.33" y="164.36" width="422.74" height="2.87"/><rect class="cls-153" x="9.33" y="160.77" width="422.74" height="2.87"/><rect class="cls-154" x="9.33" y="157.9" width="422.74" height="2.87"/><rect class="cls-155" x="9.33" y="155.03" width="422.74" height="2.87"/><rect class="cls-156" x="9.33" y="152.16" width="422.74" height="2.87"/><rect class="cls-157" x="9.33" y="148.57" width="422.74" height="2.87"/><rect class="cls-158" x="9.33" y="145.7" width="422.74" height="2.87"/><rect class="cls-159" x="9.33" y="142.83" width="422.74" height="2.87"/><rect class="cls-160" x="9.33" y="139.96" width="422.74" height="2.87"/><rect class="cls-161" x="9.33" y="136.37" width="422.74" height="2.87"/><rect class="cls-162" x="9.33" y="133.5" width="422.74" height="2.87"/><rect class="cls-163" x="9.33" y="130.63" width="422.74" height="2.87"/><rect class="cls-164" x="9.33" y="127.76" width="422.74" height="2.87"/><rect class="cls-164" x="9.33" y="124.88" width="422.74" height="2.87"/><rect class="cls-165" x="9.33" y="121.3" width="422.74" height="2.87"/><rect class="cls-166" x="9.33" y="118.43" width="422.74" height="2.87"/><rect class="cls-167" x="9.33" y="115.55" width="422.74" height="2.87"/><rect class="cls-168" x="9.33" y="112.68" width="422.74" height="2.87"/><rect class="cls-169" x="9.33" y="109.09" width="422.74" height="2.87"/><rect class="cls-170" x="9.33" y="106.22" width="422.74" height="2.87"/><rect class="cls-170" x="9.33" y="103.35" width="422.74" height="2.87"/><rect class="cls-171" x="9.33" y="100.48" width="422.74" height="2.87"/><rect class="cls-172" x="9.33" y="96.89" width="422.74" height="2.87"/><rect class="cls-173" x="9.33" y="94.02" width="422.74" height="2.87"/><rect class="cls-174" x="9.33" y="91.15" width="422.74" height="2.87"/><rect class="cls-175" x="9.33" y="88.28" width="422.74" height="2.87"/><rect class="cls-176" x="9.33" y="85.41" width="422.74" height="2.87"/><rect class="cls-176" x="9.33" y="81.82" width="422.74" height="2.87"/><rect class="cls-177" x="9.33" y="78.95" width="422.74" height="2.87"/><rect class="cls-178" x="9.33" y="76.08" width="422.74" height="2.87"/><rect class="cls-179" x="9.33" y="72.49" width="422.74" height="2.87"/><rect class="cls-179" x="9.33" y="69.62" width="422.74" height="2.87"/><rect class="cls-180" x="9.33" y="66.75" width="422.74" height="2.87"/><rect class="cls-180" x="9.33" y="63.88" width="422.74" height="2.87"/><rect class="cls-181" x="9.33" y="61.01" width="422.74" height="2.87"/><rect class="cls-182" x="9.33" y="57.42" width="422.74" height="2.87"/><rect class="cls-183" x="9.33" y="54.55" width="422.74" height="2.87"/><rect class="cls-183" x="9.33" y="51.68" width="422.74" height="2.87"/><rect class="cls-183" x="9.33" y="48.81" width="422.74" height="2.87"/><rect class="cls-184" x="9.33" y="45.22" width="422.74" height="2.87"/><rect class="cls-184" x="9.33" y="42.35" width="422.74" height="2.87"/><rect class="cls-184" x="9.33" y="39.48" width="422.74" height="2.87"/><rect class="cls-185" x="9.33" y="36.6" width="422.74" height="2.87"/><rect class="cls-185" x="9.33" y="33.02" width="422.74" height="2.87"/><rect class="cls-186" x="9.33" y="30.14" width="422.74" height="2.87"/><rect class="cls-186" x="9.33" y="27.27" width="422.74" height="2.87"/><rect class="cls-187" x="9.33" y="24.4" width="422.74" height="2.87"/><rect class="cls-187" x="9.33" y="20.81" width="422.74" height="2.87"/><rect class="cls-187" x="9.33" y="17.94" width="422.74" height="2.87"/><rect class="cls-187" x="9.33" y="15.07" width="422.74" height="2.87"/><rect class="cls-187" x="9.33" y="12.2" width="422.74" height="2.87"/><rect class="cls-187" x="9.33" y="8.61" width="422.74" height="2.87"/></g><path class="cls-188" d="M422.74,266.28a66.41,66.41,0,0,1-51.67,22.25H144.26A144.27,144.27,0,0,1,144.26,0h46.66l-7.18,7.18a83.84,83.84,0,0,0-21.53,56c0,54.55,44.5,99.05,99.76,99.05h40.19c24.41,0,48.81,0,73.21-.72a63.47,63.47,0,0,1,57.42,35.89,95.41,95.41,0,0,1,5,12.91A63.62,63.62,0,0,1,422.74,266.28Z"/></g></g></svg>